<!-- CC BY 4.0 <https://fontawesome.com/license/free> -->
<svg version="1.1" xmlns="http://www.w3.org/2000/svg" width="14" height="28" viewBox="0 0 14 28">
<path d="M8.667 14.208v0.417c0 0.207-0.168 0.375-0.375 0.375h-1.083c-0.207 0-0.375-0.168-0.375-0.375v-1.083c0-0.207 0.168-0.375 0.375-0.375h0.917c0.023 0 0.042 0.018 0.042 0.042v0.083c0 0.023-0.018 0.042-0.042 0.042h-0.917c-0.115 0-0.208 0.094-0.208 0.208v1.083c0 0.115 0.094 0.208 0.208 0.208h1.083c0.115 0 0.208-0.094 0.208-0.208v-0.417c0-0.023 0.018-0.042 0.042-0.042h0.083c0.023 0 0.042 0.018 0.042 0.042zM9.167 13.083v0.667c0 0.046-0.038 0.083-0.083 0.083-0.022 0-0.043-0.009-0.059-0.025l-0.229-0.229-0.849 0.849c-0.008 0.008-0.020 0.013-0.030 0.013s-0.022-0.005-0.030-0.013l-0.148-0.148c-0.008-0.008-0.013-0.020-0.013-0.030s0.005-0.022 0.013-0.030l0.849-0.849-0.229-0.229c-0.016-0.016-0.025-0.036-0.025-0.059 0-0.046 0.038-0.083 0.083-0.083h0.667c0.046 0 0.083 0.038 0.083 0.083z"></path>
</svg>
