<!-- CC BY 4.0 <https://fontawesome.com/license/free> -->
<svg version="1.1" xmlns="http://www.w3.org/2000/svg" width="24" height="28" viewBox="0 0 24 28">
<path d="M8 20c0-1.109-0.891-2-2-2s-2 0.891-2 2 0.891 2 2 2 2-0.891 2-2zM13.484 21.469c-0.266-4.844-4.109-8.687-8.953-8.953-0.141-0.016-0.281 0.047-0.375 0.141s-0.156 0.219-0.156 0.359v2c0 0.266 0.203 0.484 0.469 0.5 3.203 0.234 5.781 2.812 6.016 6.016 0.016 0.266 0.234 0.469 0.5 0.469h2c0.141 0 0.266-0.063 0.359-0.156s0.156-0.234 0.141-0.375zM19.484 21.484c-0.266-8.125-6.844-14.703-14.969-14.969-0.156-0.016-0.266 0.031-0.359 0.141-0.094 0.094-0.156 0.219-0.156 0.359v2c0 0.266 0.219 0.484 0.484 0.5 6.484 0.234 11.766 5.516 12 12 0.016 0.266 0.234 0.484 0.5 0.484h2c0.141 0 0.266-0.063 0.359-0.156 0.109-0.094 0.156-0.219 0.141-0.359zM24 6.5v15c0 2.484-2.016 4.5-4.5 4.5h-15c-2.484 0-4.5-2.016-4.5-4.5v-15c0-2.484 2.016-4.5 4.5-4.5h15c2.484 0 4.5 2.016 4.5 4.5z"></path>
</svg>
